<svg width="104" height="104" viewBox="0 0 104 104" fill="none" xmlns="http://www.w3.org/2000/svg">
<circle cx="52" cy="52" r="48" fill="#CCCCCC"/>
<path d="M53 50L64 61L61 64L49 52V36H53V50ZM30.4295 44H26.2049H25V28H29V37.8506C33.7538 30.1398 42.2766 25 52 25C66.9117 25 79 37.0883 79 52C79 66.9117 66.9117 79 52 79C44.5442 79 37.7942 75.9779 32.9081 71.0919L35.7365 68.2635C39.8987 72.4256 45.6487 75 52 75C64.7025 75 75 64.7025 75 52C75 39.2975 64.7025 29 52 29C43.6948 29 36.4178 33.402 32.3747 40H41V44H30.4295ZM25 52H29H25Z" fill="white"/>
</svg>
